<svg xmlns="http://www.w3.org/2000/svg" viewBox="0 0 48 48" role="img" aria-label="Tigmy Host Shield">
  <defs>
    <linearGradient id="shieldGrad" x1="0%" y1="0%" x2="100%" y2="100%">
      <stop offset="0%" style="stop-color:#ff385c"/>
      <stop offset="100%" style="stop-color:#e31c5f"/>
    </linearGradient>
  </defs>
  <path fill="url(#shieldGrad)" d="M24 2L6 8v14c0 11.5 7.8 22.2 18 24 10.2-1.8 18-12.5 18-24V8L24 2z"/>
  <path fill="#fff" opacity="0.95" d="M24 10l-8 3v9c0 6.2 4.2 12 8 13 3.8-1 8-6.8 8-13v-9l-8-3zm0 4.5l4 1.5v7.2c0 3.5-2.2 7-4 7.8-1.8-.8-4-4.3-4-7.8v-7.2l4-1.5z"/>
</svg>
